<?xml version="1.0" encoding="utf-8"?>
<!-- Generator: Adobe Illustrator 23.0.5, SVG Export Plug-In . SVG Version: 6.00 Build 0)  -->
<svg version="1.1" id="Layer_1" xmlns="http://www.w3.org/2000/svg" xmlns:xlink="http://www.w3.org/1999/xlink" x="0px" y="0px"
	 viewBox="0 0 1920 1080" style="enable-background:new 0 0 1920 1080;" xml:space="preserve">
<style type="text/css">
	.st0{fill:#090930;}
</style>
<g>
	<g>
		<path class="st0" d="M637.32,222.89H294.73v472.06h342.59c122.06,0,229.29-75.54,229.29-236.04S759.38,222.89,637.32,222.89z
			 M591.46,593.11H416.13V324.7h175.33c91.72,0,153.75,19.56,153.75,134.21C745.21,573.55,683.18,593.11,591.46,593.11z"/>
		<path class="st0" d="M1379.87,222.89h-163.86L972.55,694.95h133.53l50.58-100.49h0.21l0.1-0.19l45.01-90.17h-0.14l96.44-191.52
			l88.4,176.81h0.19l54.85,110.04l48.07,95.53H1624L1379.87,222.89z"/>
		<circle class="st0" cx="901.81" cy="651.51" r="43.67"/>
	</g>
	<g>
		<path class="st0" d="M311.65,826.26h-19.09v-74.25h19.09V826.26z"/>
		<path class="st0" d="M407.74,791.69l-0.21,34.58h-18.24v-27.68c0-13.26-4.46-20.15-19.41-20.15c-12.2,0-25.35,6.26-30.97,12.83v35
			h-18.14v-62.47h18.14v10.92c8.91-7,21.21-11.99,36.38-11.99C391.94,762.73,407.53,768.67,407.74,791.69z"/>
		<path class="st0" d="M495.67,763.79l-31.71,62.47h-25.88l-31.61-62.47h20.15l24.5,49.64l24.39-49.64H495.67z"/>
		<path class="st0" d="M559.31,803.88h18.03c-4.14,15.91-19.62,23.44-42.74,23.44c-23.76,0-42.21-9.33-42.21-32.24
			c0-23.02,17.92-32.35,43.27-32.35c23.76,0,42.74,8.17,42.74,36.59h-67.46c2.01,9.97,11.56,13.26,23.65,13.26
			C547.11,812.58,554.75,810.25,559.31,803.88z M511.58,787.76h47.41c-3.08-8.8-11.99-11.24-23.44-11.24
			C523.14,776.52,514.44,778.96,511.58,787.76z"/>
		<path class="st0" d="M672.27,791.69l-0.21,34.58h-18.24v-27.68c0-13.26-4.46-20.15-19.41-20.15c-12.2,0-25.35,6.26-30.97,12.83v35
			h-18.14v-62.47h18.14v10.92c8.91-7,21.21-11.99,36.38-11.99C656.46,762.73,672.05,768.67,672.27,791.69z"/>
		<path class="st0" d="M710.23,778.96v18.03c0,12.09,2.33,15.17,13.36,15.17c5.73,0,8.91,0,16.23-1.06v14.64
			c-6.04,1.06-12.94,1.59-21.32,1.59c-16.12,0-26.52-6.05-26.52-19.83v-28.53h-16.44v-15.17h16.44v-12.94l18.24-5.2v18.14h29.59
			v15.17H710.23z"/>
		<path class="st0" d="M744.39,795.08c0-23.02,17.39-32.35,43.27-32.35c25.77,0,43.27,9.33,43.27,32.35
			c0,22.91-17.5,32.24-43.27,32.24C761.78,827.33,744.39,817.99,744.39,795.08z M812.69,795.08c0-13.05-8.27-17.18-25.03-17.18
			c-16.86,0-25.14,4.14-25.14,17.18c0,12.94,8.27,17.08,25.14,17.08C804.42,812.16,812.69,808.02,812.69,795.08z"/>
		<path class="st0" d="M904.86,764.85v15.17c-5.94-1.48-10.71-2.12-16.02-2.12c-10.18,0-21.85,2.33-32.88,10.92v37.44h-18.14v-62.47
			h18.14v10.61c9.33-8.38,20.36-11.67,32.03-11.67C895.42,762.73,900.62,763.79,904.86,764.85z"/>
		<path class="st0" d="M1000.1,763.79l-42.21,88.99h-20.05l12.62-26.52h-9.33l-32.35-62.47h20.15l26.73,51.55l24.4-51.55H1000.1z"/>
		<path class="st0" d="M1074.66,800.7c0,7.85,6.36,11.46,30.55,11.46c20.05,0,26.09-2.23,26.09-8.06c0-6.15-4.24-7.21-28.32-8.38
			c-32.35-1.49-45.18-6.58-45.18-23.23c0-16.33,16.65-21.53,44.44-21.53c28,0,44.97,7,44.97,25.35h-19.09
			c0-8.17-8.17-10.18-28-10.18c-18.77,0-23.23,1.8-23.23,7.32c0,5.73,4.45,6.79,26.09,8.06c29.27,1.59,47.41,3.18,47.41,21.96
			c0,19.83-18.77,23.86-46.24,23.86c-30.44,0-48.58-5.2-48.58-26.62H1074.66z"/>
		<path class="st0" d="M1241.6,763.79l-42.21,88.99h-20.05l12.62-26.52h-9.33l-32.35-62.47h20.15l26.73,51.55l24.4-51.55H1241.6z"/>
		<path class="st0" d="M1258.36,804.31c0,6.68,6.89,9.23,27.15,9.23c19.62,0,22.8-1.27,22.8-6.15c0-4.77-2.97-5.09-24.92-6.47
			c-27.47-1.59-40.94-3.71-40.94-18.77c0-16.33,19.09-19.41,41.37-19.41c23.55,0,40.62,3.08,40.62,20.26h-18.24
			c0-5.2-6.58-6.47-23.44-6.47c-17.18,0-22.06,1.27-22.06,4.88c0,3.92,3.29,4.56,24.82,6.15c24.39,1.8,41.05,2.44,41.05,19.09
			c0,17.61-15.91,20.68-39.99,20.68c-24.08,0-46.35-3.08-46.35-23.02H1258.36z"/>
		<path class="st0" d="M1363.04,778.96v18.03c0,12.09,2.33,15.17,13.36,15.17c5.73,0,8.91,0,16.23-1.06v14.64
			c-6.04,1.06-12.94,1.59-21.32,1.59c-16.12,0-26.52-6.05-26.52-19.83v-28.53h-16.44v-15.17h16.44v-12.94l18.24-5.2v18.14h29.59
			v15.17H1363.04z"/>
		<path class="st0" d="M1464.12,803.88h18.03c-4.14,15.91-19.62,23.44-42.74,23.44c-23.76,0-42.21-9.33-42.21-32.24
			c0-23.02,17.92-32.35,43.27-32.35c23.76,0,42.74,8.17,42.74,36.59h-67.46c2.01,9.97,11.56,13.26,23.65,13.26
			C1451.92,812.58,1459.56,810.25,1464.12,803.88z M1416.39,787.76h47.41c-3.08-8.8-11.99-11.24-23.44-11.24
			C1427.95,776.52,1419.25,778.96,1416.39,787.76z"/>
		<path class="st0" d="M1625.44,791.26l-0.21,35h-18.14v-27.68c0-13.26-2.23-20.15-15.17-20.15c-9.55,0-18.88,4.56-24.39,9.55
			c0.11,1.06,0.11,2.12,0.11,3.29l-0.21,35h-18.14v-27.68c0-13.26-2.23-20.15-15.17-20.15c-10.5,0-20.68,5.41-25.88,11.03v36.8
			h-18.14v-62.47h18.14v10.18c6.79-5.41,16.97-11.24,32.46-11.24c9.44,0,18.35,2.76,23.12,11.46c8.06-6.05,19.2-11.46,34.68-11.46
			C1612.5,762.73,1625.23,768.67,1625.44,791.26z"/>
	</g>
</g>
</svg>
